<svg xmlns="http://www.w3.org/2000/svg" viewBox="0 0 420 280" role="img" aria-label="Hare silhouette">
  <path fill="rgba(0,0,0,0.76)" d="M134 126c-12-33-19-72-9-101 27 17 43 51 52 85 8-37 24-77 55-101 12 40-2 88-23 126 35 8 66 28 88 58 21 0 42 8 58 23 11 11 12 29 2 41-11 13-30 14-43 2-8-7-19-11-31-10-27 2-54-4-78-17-36 25-85 33-128 17-30-11-53-33-62-60-6-19 2-41 19-52 27-18 61-21 100-11Z"/>
  <path fill="rgba(0,0,0,0.82)" d="M52 232c34 5 70 2 104-9 10 9 24 18 42 26-49 22-102 24-158 6-13-4-11-25 12-23Zm209-3c38 10 72 13 101 7 21-4 31 18 12 28-37 20-92 14-139-11 8-9 16-17 26-24Z"/>
  <circle cx="285" cy="196" r="7" fill="rgba(236,226,185,0.8)"/>
  <path fill="none" stroke="rgba(224,232,218,0.24)" stroke-width="7" stroke-linecap="round" d="M123 149c37-16 82-11 119 12M181 118c11-28 25-54 43-78M150 111c-9-31-11-56-5-75"/>
</svg>
