<svg xmlns="http://www.w3.org/2000/svg" viewBox="0 0 320 420" role="img" aria-label="Owl silhouette">
  <path fill="rgba(0,0,0,0.78)" d="M160 28c-34 0-62 17-80 44-16-9-34-12-54-8 11 18 20 36 26 56-8 25-12 54-12 86 0 95 48 178 120 178s120-83 120-178c0-32-4-61-12-86 6-20 15-38 26-56-20-4-38-1-54 8-18-27-46-44-80-44Z"/>
  <path fill="rgba(255,235,170,0.68)" d="M102 154c15-12 36-13 51-1-12 16-34 18-51 1Zm65-1c15-12 36-11 51 1-17 17-39 15-51-1Z"/>
  <path fill="rgba(0,0,0,0.88)" d="M121 151a14 14 0 1 0 0 28 14 14 0 0 0 0-28Zm78 0a14 14 0 1 0 0 28 14 14 0 0 0 0-28Z"/>
  <path fill="rgba(215,185,95,0.62)" d="m160 184 18 35h-36l18-35Z"/>
  <path fill="none" stroke="rgba(224,232,218,0.28)" stroke-width="8" stroke-linecap="round" d="M80 123c18-42 44-62 80-62s62 20 80 62M92 252c12 56 35 84 68 84s56-28 68-84"/>
</svg>
